<svg xmlns="http://www.w3.org/2000/svg" viewBox="19505 2890 4400 4400" fill="#000"><path d="M20499 7131 c-23 -19 -24 -23 -24 -181 0 -158 1 -162 24 -181 23 -18 56 -19 1193 -19 1244 0 1214 -1 1232 45 3 9 6 82 6 161 0 141 -1 146 -25 169 l-24 25 -1179 0 c-1147 0 -1180 -1 -1203 -19z"/><path d="M20550 6657 c0 -144 48 -230 158 -284 l57 -28 930 0 c891 0 932 1 979 19 28 11 69 37 92 58 59 54 82 113 86 223 l3 90 -1152 3 -1153 2 0 -83z"/><path d="M20960 6290 c0 -32 4 -40 18 -40 21 0 115 -60 160 -103 56 -54 130 -174 154 -250 29 -92 28 -181 -1 -262 -11 -32 -21 -74 -21 -92 l0 -33 436 0 436 0 -5 38 c-3 20 -15 64 -27 97 -72 196 49 459 269 585 54 31 60 38 61 68 l0 32 -740 0 -740 0 0 -40z"/><path d="M21250 5490 c-20 -5 -49 -24 -67 -44 -31 -34 -33 -40 -33 -112 0 -90 17 -127 72 -155 35 -18 64 -19 479 -19 484 0 487 0 529 60 16 22 20 44 20 109 0 75 -2 82 -31 115 -17 20 -47 40 -67 46 -44 12 -850 12 -902 0z"/><path d="M21180 5093 c-87 -122 -120 -232 -120 -399 0 -127 18 -213 61 -298 120 -237 355 -363 639 -343 227 16 419 140 515 332 56 112 68 177 62 339 -5 169 -23 231 -102 345 l-51 76 -481 3 -482 2 -41 -57z"/></svg>
